<?xml version="1.0" standalone="no"?>
<!DOCTYPE svg PUBLIC "-//W3C//DTD SVG 20010904//EN"
 "http://www.w3.org/TR/2001/REC-SVG-20010904/DTD/svg10.dtd">
<svg version="1.0" xmlns="http://www.w3.org/2000/svg"
 width="633.000000pt" height="633.000000pt" viewBox="0 0 633.000000 633.000000"
 preserveAspectRatio="xMidYMid meet">
<metadata>
Created by potrace 1.14, written by Peter Selinger 2001-2017
</metadata>
<g transform="translate(0.000000,633.000000) scale(0.100000,-0.100000)"
fill="#000000" stroke="none">
<path d="M3899 5376 c-2 -2 -35 -6 -74 -10 -524 -45 -1064 -341 -1399 -764
-36 -46 -66 -87 -66 -91 0 -5 39 -18 88 -31 48 -13 131 -38 184 -56 88 -31
128 -35 128 -14 0 13 143 151 220 213 215 172 504 305 744 343 21 3 47 7 57 9
167 32 436 24 626 -20 191 -44 387 -132 573 -258 175 -118 191 -126 256 -123
130 7 213 135 160 247 -22 46 -60 86 -152 154 -260 196 -618 348 -899 381 -22
3 -51 7 -65 10 -27 6 -376 15 -381 10z"/>
<path d="M2148 4515 c-2 -1 -32 -5 -68 -9 -138 -13 -268 -51 -403 -119 -307
-153 -532 -431 -618 -765 -27 -104 -34 -175 -33 -317 3 -319 136 -618 372
-839 61 -58 63 -59 102 -86 19 -13 37 -27 40 -31 9 -13 195 -108 250 -128 165
-60 359 -87 513 -71 l49 5 -29 40 c-16 22 -52 78 -80 125 -142 236 -217 453
-258 745 -17 118 -16 450 1 557 7 46 16 98 19 117 33 208 126 430 271 654 40
61 72 113 71 114 -4 3 -196 11 -199 8z"/>
<path d="M2678 4303 c-75 -105 -119 -176 -152 -248 -52 -111 -118 -330 -131
-435 -4 -29 -9 -62 -12 -74 -11 -52 -9 -319 4 -421 25 -192 87 -405 165 -560
51 -101 176 -285 194 -285 7 0 37 14 66 32 296 179 502 479 562 818 15 86 16
319 1 405 -13 74 -56 208 -90 282 -31 67 -101 191 -114 203 -3 3 -24 28 -45
55 -48 60 -133 144 -201 195 -61 47 -165 110 -180 110 -7 0 -37 -35 -67 -77z"/>
<path d="M2650 2241 c-41 -16 -123 -41 -182 -56 -60 -15 -108 -32 -108 -36 0
-28 249 -301 353 -386 153 -127 337 -238 542 -328 88 -39 296 -101 400 -119
17 -3 41 -8 55 -11 105 -21 448 -28 580 -12 311 38 629 164 890 350 189 135
223 177 221 274 -1 90 -69 166 -157 175 -57 7 -105 -14 -203 -86 -164 -120
-328 -206 -511 -266 -149 -50 -283 -72 -450 -75 -171 -3 -284 9 -435 45 -266
65 -532 203 -724 375 -49 44 -165 165 -169 176 -5 13 -19 11 -102 -20z"/>
</g>
</svg>
